<?xml version="1.0" encoding="UTF-8"?>
<!DOCTYPE svg PUBLIC "-//W3C//DTD SVG 1.1//EN" "http://www.w3.org/Graphics/SVG/1.1/DTD/svg11.dtd">
<svg xmlns="http://www.w3.org/2000/svg" version="1.1" width="128px" height="128px" style="shape-rendering:geometricPrecision; text-rendering:geometricPrecision; image-rendering:optimizeQuality; fill-rule:evenodd; clip-rule:evenodd" xmlns:xlink="http://www.w3.org/1999/xlink">
<g><path style="opacity:0.977" fill="#3376bb" d="M 86.5,58.5 C 85.8333,58.5 85.5,58.8333 85.5,59.5C 84.8333,59.5 84.5,59.8333 84.5,60.5C 83.0783,60.7086 81.745,61.2086 80.5,62C 69.8333,62.3333 59.1667,62.6667 48.5,63C 45.9746,63.4238 43.9746,64.5905 42.5,66.5C 41.8333,66.5 41.5,66.8333 41.5,67.5C 40.8333,67.5 40.5,67.8333 40.5,68.5C 39.0337,69.347 38.2004,70.6803 38,72.5C 37.5006,77.8229 37.334,83.1563 37.5,88.5C 31.7383,88.8507 26.0716,88.3507 20.5,87C 18.0439,84.5925 16.2106,81.7591 15,78.5C 13.4575,69.8963 13.1242,61.2296 14,52.5C 14.7736,48.9513 16.107,45.618 18,42.5C 19.3189,40.5125 21.1523,39.3459 23.5,39C 36.8333,38.6667 50.1667,38.3333 63.5,38C 55.1733,37.5003 46.84,37.3336 38.5,37.5C 35.1533,24.5903 39.8199,16.757 52.5,14C 61.2296,13.1242 69.8963,13.4575 78.5,15C 83.2843,16.1251 86.4509,18.9584 88,23.5C 89.0519,35.2927 88.5519,46.9594 86.5,58.5 Z"/></g>
<g><path style="opacity:1" fill="#f4f7fb" d="M 48.5,21.5 C 53.2137,21.2008 54.8804,23.2008 53.5,27.5C 47.2899,28.9673 45.6232,26.9673 48.5,21.5 Z"/></g>
<g><path style="opacity:0.967" fill="#ffbb33" d="M 40.5,68.5 C 41.1667,68.5 41.5,68.1667 41.5,67.5C 42.1667,67.5 42.5,67.1667 42.5,66.5C 43.9217,66.2914 45.255,65.7914 46.5,65C 57.1667,64.6667 67.8333,64.3333 78.5,64C 81.0254,63.5762 83.0254,62.4095 84.5,60.5C 85.1667,60.5 85.5,60.1667 85.5,59.5C 86.1667,59.5 86.5,59.1667 86.5,58.5C 87.9663,57.653 88.7996,56.3197 89,54.5C 89.4994,49.1771 89.666,43.8437 89.5,38.5C 95.2617,38.1493 100.928,38.6493 106.5,40C 108.956,42.4075 110.789,45.2409 112,48.5C 113.542,57.1037 113.876,65.7704 113,74.5C 112.226,78.0487 110.893,81.382 109,84.5C 107.681,86.4875 105.848,87.6541 103.5,88C 90.1667,88.3333 76.8333,88.6667 63.5,89C 71.8267,89.4997 80.16,89.6664 88.5,89.5C 91.8467,102.41 87.1801,110.243 74.5,113C 65.7704,113.876 57.1037,113.542 48.5,112C 43.7157,110.875 40.5491,108.042 39,103.5C 37.9481,91.7073 38.4481,80.0406 40.5,68.5 Z"/></g>
<g><path style="opacity:1" fill="#fffaf2" d="M 73.5,98.5 C 78.0057,97.5272 80.1724,99.1939 80,103.5C 76.5067,106.502 74.0067,105.835 72.5,101.5C 72.685,100.416 73.0183,99.4163 73.5,98.5 Z"/></g>
</svg>
